<mxfile host="app.diagrams.net" modified="2022-05-17T03:36:18.292Z" agent="5.0 (Windows NT 10.0; Win64; x64) AppleWebKit/537.36 (KHTML, like Gecko) Chrome/101.0.4951.41 Safari/537.36" etag="L3Qkmwc3azbgSJch_i2n" version="18.0.6" type="github">
  <diagram id="C5RBs43oDa-KdzZeNtuy" name="Page-1">
    <mxGraphModel dx="813" dy="403" grid="1" gridSize="10" guides="1" tooltips="1" connect="1" arrows="1" fold="1" page="1" pageScale="1" pageWidth="827" pageHeight="1169" math="0" shadow="0">
      <root>
        <mxCell id="WIyWlLk6GJQsqaUBKTNV-0" />
        <mxCell id="WIyWlLk6GJQsqaUBKTNV-1" parent="WIyWlLk6GJQsqaUBKTNV-0" />
        <mxCell id="ZjeYeXZyX7ZmgIwFFEmt-0" style="edgeStyle=orthogonalEdgeStyle;rounded=0;orthogonalLoop=1;jettySize=auto;html=1;exitX=0.5;exitY=1;exitDx=0;exitDy=0;entryX=0.5;entryY=0;entryDx=0;entryDy=0;fontFamily=宋体;fontSize=12;" edge="1" parent="WIyWlLk6GJQsqaUBKTNV-1" source="Kj3c9yN96UB_w5Sm31qa-0" target="Kj3c9yN96UB_w5Sm31qa-3">
          <mxGeometry relative="1" as="geometry" />
        </mxCell>
        <mxCell id="Kj3c9yN96UB_w5Sm31qa-0" value="&lt;font style=&quot;font-size: 11px;&quot; face=&quot;宋体&quot;&gt;多无人机协同的草原修复问题&lt;/font&gt;" style="rounded=1;whiteSpace=wrap;html=1;glass=0;shadow=0;sketch=0;gradientColor=none;align=left;" parent="WIyWlLk6GJQsqaUBKTNV-1" vertex="1">
          <mxGeometry x="301.5" y="59" width="162" height="20" as="geometry" />
        </mxCell>
        <mxCell id="fFSGDh22msuwKQuR6GsG-3" style="edgeStyle=orthogonalEdgeStyle;rounded=0;orthogonalLoop=1;jettySize=auto;html=1;exitX=0.5;exitY=1;exitDx=0;exitDy=0;" parent="WIyWlLk6GJQsqaUBKTNV-1" source="Kj3c9yN96UB_w5Sm31qa-3" target="Kj3c9yN96UB_w5Sm31qa-4" edge="1">
          <mxGeometry relative="1" as="geometry" />
        </mxCell>
        <mxCell id="Kj3c9yN96UB_w5Sm31qa-3" value="&lt;font style=&quot;font-size: 11px;&quot; face=&quot;宋体&quot;&gt;建立多机协同草原修复模型&lt;/font&gt;" style="rounded=0;whiteSpace=wrap;html=1;" parent="WIyWlLk6GJQsqaUBKTNV-1" vertex="1">
          <mxGeometry x="305" y="106" width="154" height="20" as="geometry" />
        </mxCell>
        <mxCell id="Kj3c9yN96UB_w5Sm31qa-13" style="edgeStyle=orthogonalEdgeStyle;rounded=0;orthogonalLoop=1;jettySize=auto;html=1;exitX=0.5;exitY=1;exitDx=0;exitDy=0;" parent="WIyWlLk6GJQsqaUBKTNV-1" source="Kj3c9yN96UB_w5Sm31qa-4" target="Kj3c9yN96UB_w5Sm31qa-10" edge="1">
          <mxGeometry relative="1" as="geometry" />
        </mxCell>
        <mxCell id="Kj3c9yN96UB_w5Sm31qa-15" style="edgeStyle=orthogonalEdgeStyle;rounded=0;orthogonalLoop=1;jettySize=auto;html=1;exitX=0.5;exitY=1;exitDx=0;exitDy=0;entryX=0.5;entryY=0;entryDx=0;entryDy=0;" parent="WIyWlLk6GJQsqaUBKTNV-1" source="Kj3c9yN96UB_w5Sm31qa-4" target="Kj3c9yN96UB_w5Sm31qa-12" edge="1">
          <mxGeometry relative="1" as="geometry" />
        </mxCell>
        <mxCell id="fFSGDh22msuwKQuR6GsG-4" style="edgeStyle=orthogonalEdgeStyle;rounded=0;orthogonalLoop=1;jettySize=auto;html=1;exitX=0.5;exitY=1;exitDx=0;exitDy=0;entryX=0.5;entryY=0;entryDx=0;entryDy=0;" parent="WIyWlLk6GJQsqaUBKTNV-1" source="Kj3c9yN96UB_w5Sm31qa-4" target="Kj3c9yN96UB_w5Sm31qa-8" edge="1">
          <mxGeometry relative="1" as="geometry" />
        </mxCell>
        <mxCell id="Kj3c9yN96UB_w5Sm31qa-4" value="&lt;font style=&quot;font-size: 11px;&quot; face=&quot;宋体&quot;&gt;考虑无人机能量受限和任务约束&lt;/font&gt;" style="rounded=0;whiteSpace=wrap;html=1;" parent="WIyWlLk6GJQsqaUBKTNV-1" vertex="1">
          <mxGeometry x="294" y="159" width="176" height="20" as="geometry" />
        </mxCell>
        <mxCell id="ZjeYeXZyX7ZmgIwFFEmt-1" style="edgeStyle=orthogonalEdgeStyle;rounded=0;orthogonalLoop=1;jettySize=auto;html=1;exitX=0.5;exitY=1;exitDx=0;exitDy=0;fontFamily=宋体;fontSize=12;" edge="1" parent="WIyWlLk6GJQsqaUBKTNV-1" source="Kj3c9yN96UB_w5Sm31qa-8" target="Kj3c9yN96UB_w5Sm31qa-20">
          <mxGeometry relative="1" as="geometry" />
        </mxCell>
        <mxCell id="Kj3c9yN96UB_w5Sm31qa-8" value="&lt;font face=&quot;宋体&quot; style=&quot;font-size: 12px;&quot;&gt;基于强化学习&lt;br style=&quot;font-size: 11px;&quot;&gt;实现路径规划&lt;/font&gt;" style="rounded=0;whiteSpace=wrap;html=1;fontSize=11;" parent="WIyWlLk6GJQsqaUBKTNV-1" vertex="1">
          <mxGeometry x="342.5" y="236" width="80" height="40" as="geometry" />
        </mxCell>
        <mxCell id="Kj3c9yN96UB_w5Sm31qa-28" style="edgeStyle=orthogonalEdgeStyle;rounded=0;orthogonalLoop=1;jettySize=auto;html=1;exitX=0.5;exitY=1;exitDx=0;exitDy=0;" parent="WIyWlLk6GJQsqaUBKTNV-1" source="Kj3c9yN96UB_w5Sm31qa-10" target="Kj3c9yN96UB_w5Sm31qa-20" edge="1">
          <mxGeometry relative="1" as="geometry" />
        </mxCell>
        <mxCell id="Kj3c9yN96UB_w5Sm31qa-10" value="&lt;font face=&quot;宋体&quot;&gt;基于动态任务&lt;br&gt;实现负载均衡&lt;/font&gt;" style="rounded=0;whiteSpace=wrap;html=1;" parent="WIyWlLk6GJQsqaUBKTNV-1" vertex="1">
          <mxGeometry x="222" y="236" width="80" height="40" as="geometry" />
        </mxCell>
        <mxCell id="Kj3c9yN96UB_w5Sm31qa-29" style="edgeStyle=orthogonalEdgeStyle;rounded=0;orthogonalLoop=1;jettySize=auto;html=1;exitX=0.5;exitY=1;exitDx=0;exitDy=0;entryX=0.5;entryY=0;entryDx=0;entryDy=0;" parent="WIyWlLk6GJQsqaUBKTNV-1" source="Kj3c9yN96UB_w5Sm31qa-12" target="Kj3c9yN96UB_w5Sm31qa-20" edge="1">
          <mxGeometry relative="1" as="geometry" />
        </mxCell>
        <mxCell id="Kj3c9yN96UB_w5Sm31qa-12" value="&lt;font style=&quot;font-size: 11px;&quot; face=&quot;宋体&quot;&gt;基于层次递减&lt;br style=&quot;font-size: 11px;&quot;&gt;实现面积决策&lt;/font&gt;" style="rounded=0;whiteSpace=wrap;html=1;" parent="WIyWlLk6GJQsqaUBKTNV-1" vertex="1">
          <mxGeometry x="462" y="236" width="80" height="40" as="geometry" />
        </mxCell>
        <mxCell id="ZjeYeXZyX7ZmgIwFFEmt-5" style="edgeStyle=orthogonalEdgeStyle;rounded=0;orthogonalLoop=1;jettySize=auto;html=1;exitX=0.5;exitY=1;exitDx=0;exitDy=0;entryX=0.5;entryY=0;entryDx=0;entryDy=0;fontFamily=宋体;fontSize=12;" edge="1" parent="WIyWlLk6GJQsqaUBKTNV-1" source="Kj3c9yN96UB_w5Sm31qa-20" target="Kj3c9yN96UB_w5Sm31qa-25">
          <mxGeometry relative="1" as="geometry" />
        </mxCell>
        <mxCell id="Kj3c9yN96UB_w5Sm31qa-20" value="&lt;font style=&quot;font-size: 11px;&quot; face=&quot;宋体&quot;&gt;提出多无人机协同修复算法&lt;/font&gt;" style="rounded=0;whiteSpace=wrap;html=1;" parent="WIyWlLk6GJQsqaUBKTNV-1" vertex="1">
          <mxGeometry x="306" y="316" width="153" height="20" as="geometry" />
        </mxCell>
        <mxCell id="Kj3c9yN96UB_w5Sm31qa-25" value="&lt;font style=&quot;font-size: 11px;&quot; face=&quot;宋体&quot;&gt;仿真证实模型和算法的有效性&lt;/font&gt;" style="rounded=1;whiteSpace=wrap;html=1;glass=0;shadow=0;sketch=0;gradientColor=none;" parent="WIyWlLk6GJQsqaUBKTNV-1" vertex="1">
          <mxGeometry x="300" y="357" width="165" height="20" as="geometry" />
        </mxCell>
      </root>
    </mxGraphModel>
  </diagram>
</mxfile>
